<svg xmlns="http://www.w3.org/2000/svg" viewBox="0 0 32 32" width="32" height="32">
  <!-- Emerald hexagonal gem -->
  <polygon points="16,2 28,9 28,23 16,30 4,23 4,9" fill="#00843D" stroke="#007A33" stroke-width="1"/>
  <!-- Inner facet (lighter) -->
  <polygon points="16,6 24,11 24,21 16,26 8,21 8,11" fill="#00A94F" opacity="0.6"/>
  <!-- Neural network connections -->
  <line x1="12" y1="12" x2="20" y2="12" stroke="white" stroke-width="0.8" opacity="0.7"/>
  <line x1="12" y1="12" x2="16" y2="20" stroke="white" stroke-width="0.8" opacity="0.7"/>
  <line x1="20" y1="12" x2="16" y2="20" stroke="white" stroke-width="0.8" opacity="0.7"/>
  <line x1="16" y1="8" x2="12" y2="12" stroke="white" stroke-width="0.8" opacity="0.7"/>
  <line x1="16" y1="8" x2="20" y2="12" stroke="white" stroke-width="0.8" opacity="0.7"/>
  <line x1="16" y1="20" x2="10" y2="18" stroke="white" stroke-width="0.8" opacity="0.5"/>
  <line x1="16" y1="20" x2="22" y2="18" stroke="white" stroke-width="0.8" opacity="0.5"/>
  <!-- Neural nodes (white dots) -->
  <circle cx="16" cy="8" r="1.8" fill="white"/>
  <circle cx="12" cy="12" r="1.8" fill="white"/>
  <circle cx="20" cy="12" r="1.8" fill="white"/>
  <circle cx="16" cy="20" r="1.8" fill="white"/>
  <circle cx="10" cy="18" r="1.2" fill="white" opacity="0.7"/>
  <circle cx="22" cy="18" r="1.2" fill="white" opacity="0.7"/>
</svg>
